<svg width="20" height="20" viewBox="0 0 20 20" fill="none" xmlns="http://www.w3.org/2000/svg">
<mask id="mask0_320_1860" style="mask-type:alpha" maskUnits="userSpaceOnUse" x="0" y="0" width="20" height="20">
<rect width="20" height="20" fill="#D9D9D9"/>
</mask>
<g mask="url(#mask0_320_1860)">
<path d="M13.426 2.5C16.3612 2.5 18.3334 5.29375 18.3334 7.9C18.3334 13.1781 10.1482 17.5 10.0001 17.5C9.85193 17.5 1.66675 13.1781 1.66675 7.9C1.66675 5.29375 3.63897 2.5 6.57416 2.5C8.25934 2.5 9.36119 3.35312 10.0001 4.10312C10.639 3.35312 11.7408 2.5 13.426 2.5Z" stroke="white" stroke-linecap="round" stroke-linejoin="round"/>
<path d="M13.426 2.5C16.3612 2.5 18.3334 5.29375 18.3334 7.9C18.3334 13.1781 10.1482 17.5 10.0001 17.5C9.85193 17.5 1.66675 13.1781 1.66675 7.9C1.66675 5.29375 3.63897 2.5 6.57416 2.5C8.25934 2.5 9.36119 3.35312 10.0001 4.10312C10.639 3.35312 11.7408 2.5 13.426 2.5Z" stroke="black" stroke-opacity="0.6" stroke-linecap="round" stroke-linejoin="round"/>
</g>
</svg>
