<svg width="17" height="16" viewBox="0 0 17 16" fill="none" xmlns="http://www.w3.org/2000/svg">
<path d="M8.33388 0C6.16119 0 5.88852 0.00950015 5.03518 0.0483335C4.1835 0.0873335 3.60216 0.222167 3.09349 0.42C2.56732 0.624333 2.12098 0.897667 1.67631 1.3425C1.2313 1.78717 0.957967 2.2335 0.752965 2.7595C0.554629 3.26833 0.419628 3.84983 0.381294 4.70117C0.343294 5.5545 0.333294 5.82733 0.333294 8C0.333294 10.1727 0.342961 10.4445 0.381628 11.2978C0.420795 12.1495 0.55563 12.7308 0.753298 13.2395C0.957801 13.7657 1.23114 14.212 1.67597 14.6567C2.12048 15.1017 2.56682 15.3757 3.09266 15.58C3.60166 15.7778 4.18317 15.9127 5.03468 15.9517C5.88802 15.9905 6.16052 16 8.33304 16C10.5059 16 10.7777 15.9905 11.6311 15.9517C12.4828 15.9127 13.0648 15.7778 13.5738 15.58C14.0998 15.3757 14.5454 15.1017 14.9899 14.6567C15.435 14.212 15.7083 13.7657 15.9133 13.2397C16.11 12.7308 16.245 12.1493 16.285 11.298C16.3233 10.4447 16.3333 10.1727 16.3333 8C16.3333 5.82733 16.3233 5.55467 16.285 4.70133C16.245 3.84967 16.11 3.26833 15.9133 2.75967C15.7083 2.2335 15.435 1.78717 14.9899 1.3425C14.5449 0.8975 14.0999 0.624167 13.5733 0.42C13.0633 0.222167 12.4816 0.0873335 11.6299 0.0483335C10.7766 0.00950015 10.5049 0 8.33154 0H8.33388ZM7.6162 1.44167C7.82921 1.44133 8.06687 1.44167 8.33388 1.44167C10.4699 1.44167 10.7231 1.44933 11.5666 1.48767C12.3466 1.52333 12.7699 1.65367 13.0519 1.76317C13.4253 1.90817 13.6914 2.0815 13.9713 2.3615C14.2513 2.6415 14.4246 2.90817 14.5699 3.2815C14.6794 3.56317 14.8099 3.9865 14.8454 4.7665C14.8838 5.60983 14.8921 5.86317 14.8921 7.99817C14.8921 10.1332 14.8838 10.3865 14.8454 11.2298C14.8098 12.0098 14.6794 12.4332 14.5699 12.7148C14.4249 13.0882 14.2513 13.354 13.9713 13.6338C13.6913 13.9138 13.4254 14.0872 13.0519 14.2322C12.7703 14.3422 12.3466 14.4722 11.5666 14.5078C10.7232 14.5462 10.4699 14.5545 8.33388 14.5545C6.19769 14.5545 5.94452 14.5462 5.10118 14.5078C4.32117 14.4718 3.89783 14.3415 3.61566 14.232C3.24232 14.087 2.97566 13.9137 2.69565 13.6337C2.41565 13.3537 2.24231 13.0877 2.09698 12.7142C1.98748 12.4325 1.85698 12.0092 1.82148 11.2292C1.78314 10.3858 1.77548 10.1325 1.77548 7.99617C1.77548 5.85983 1.78314 5.60783 1.82148 4.7645C1.85714 3.9845 1.98748 3.56117 2.09698 3.27917C2.24198 2.90583 2.41565 2.63917 2.69565 2.35917C2.97566 2.07917 3.24232 1.90583 3.61566 1.7605C3.89766 1.6505 4.32117 1.5205 5.10118 1.48467C5.83918 1.45133 6.12519 1.44133 7.6162 1.43967V1.44167Z" fill="url(#paint0_radial_320_1272)"/>
<path d="M12.5871 2.75035C12.3972 2.75035 12.2115 2.80666 12.0537 2.91216C11.8958 3.01766 11.7727 3.16761 11.7001 3.34305C11.6274 3.51849 11.6084 3.71153 11.6455 3.89776C11.6826 4.08399 11.774 4.25504 11.9083 4.38929C12.0426 4.52353 12.2137 4.61494 12.4 4.65194C12.5862 4.68895 12.7793 4.66989 12.9547 4.59718C13.1301 4.52447 13.28 4.40137 13.3854 4.24345C13.4909 4.08554 13.5471 3.8999 13.5471 3.71002C13.5471 3.18002 13.1171 2.75002 12.5871 2.75002V2.75035Z" fill="url(#paint1_radial_320_1272)"/>
<path fill-rule="evenodd" clip-rule="evenodd" d="M8.31667 3.87201C6.04782 3.87201 4.2083 5.71151 4.2083 7.98035C4.2083 10.2492 6.04782 12.0878 8.31667 12.0878C10.5855 12.0878 12.4246 10.2492 12.4246 7.98035C12.4246 5.71151 10.5855 3.87201 8.31667 3.87201ZM8.3333 10.625C9.78304 10.625 10.9583 9.44976 10.9583 8.00002C10.9583 6.55027 9.78304 5.37502 8.3333 5.37502C6.88355 5.37502 5.7083 6.55027 5.7083 8.00002C5.7083 9.44976 6.88355 10.625 8.3333 10.625Z" fill="url(#paint2_radial_320_1272)"/>
<path d="M8.33388 0C6.16119 0 5.88852 0.00950016 5.03518 0.0483335C4.1835 0.0873335 3.60216 0.222167 3.09349 0.42C2.56732 0.624333 2.12098 0.897667 1.67631 1.3425C1.2313 1.78717 0.957967 2.2335 0.752965 2.7595C0.55463 3.26833 0.419628 3.84983 0.381294 4.70117C0.343294 5.5545 0.333294 5.82733 0.333294 8C0.333294 10.1727 0.342961 10.4445 0.381628 11.2978C0.420795 12.1495 0.55563 12.7308 0.753298 13.2395C0.957801 13.7657 1.23114 14.212 1.67597 14.6567C2.12048 15.1017 2.56682 15.3757 3.09266 15.58C3.60166 15.7778 4.18317 15.9127 5.03468 15.9517C5.88802 15.9905 6.16052 16 8.33304 16C10.5059 16 10.7777 15.9905 11.6311 15.9517C12.4828 15.9127 13.0648 15.7778 13.5738 15.58C14.0998 15.3757 14.5454 15.1017 14.9899 14.6567C15.435 14.212 15.7083 13.7657 15.9133 13.2397C16.11 12.7308 16.245 12.1493 16.285 11.298C16.3233 10.4447 16.3333 10.1727 16.3333 8C16.3333 5.82733 16.3233 5.55467 16.285 4.70133C16.245 3.84967 16.11 3.26833 15.9133 2.75967C15.7083 2.2335 15.435 1.78717 14.9899 1.3425C14.5449 0.8975 14.0999 0.624167 13.5733 0.42C13.0633 0.222167 12.4816 0.0873335 11.6299 0.0483335C10.7766 0.00950016 10.5049 0 8.33154 0H8.33388ZM7.6162 1.44167C7.82921 1.44133 8.06687 1.44167 8.33388 1.44167C10.4699 1.44167 10.7231 1.44933 11.5666 1.48767C12.3466 1.52333 12.7699 1.65367 13.0519 1.76317C13.4253 1.90817 13.6914 2.0815 13.9713 2.3615C14.2513 2.6415 14.4246 2.90817 14.5699 3.2815C14.6794 3.56317 14.8099 3.9865 14.8454 4.7665C14.8838 5.60983 14.8921 5.86317 14.8921 7.99817C14.8921 10.1332 14.8838 10.3865 14.8454 11.2298C14.8098 12.0098 14.6794 12.4332 14.5699 12.7148C14.4249 13.0882 14.2513 13.354 13.9713 13.6338C13.6913 13.9138 13.4254 14.0872 13.0519 14.2322C12.7703 14.3422 12.3466 14.4722 11.5666 14.5078C10.7232 14.5462 10.4699 14.5545 8.33388 14.5545C6.19769 14.5545 5.94452 14.5462 5.10118 14.5078C4.32117 14.4718 3.89783 14.3415 3.61566 14.232C3.24232 14.087 2.97566 13.9137 2.69565 13.6337C2.41565 13.3537 2.24231 13.0877 2.09698 12.7142C1.98748 12.4325 1.85698 12.0092 1.82148 11.2292C1.78314 10.3858 1.77548 10.1325 1.77548 7.99617C1.77548 5.85983 1.78314 5.60783 1.82148 4.7645C1.85714 3.9845 1.98748 3.56117 2.09698 3.27917C2.24198 2.90583 2.41565 2.63917 2.69565 2.35917C2.97566 2.07917 3.24232 1.90583 3.61566 1.7605C3.89766 1.6505 4.32117 1.5205 5.10118 1.48467C5.83918 1.45133 6.12519 1.44133 7.6162 1.43967V1.44167Z" fill="url(#paint3_radial_320_1272)"/>
<path d="M12.5871 2.75035C12.3972 2.75035 12.2115 2.80666 12.0537 2.91216C11.8958 3.01766 11.7727 3.16761 11.7001 3.34305C11.6274 3.51849 11.6084 3.71153 11.6455 3.89776C11.6826 4.08399 11.774 4.25504 11.9083 4.38929C12.0426 4.52353 12.2137 4.61494 12.4 4.65194C12.5862 4.68895 12.7793 4.66989 12.9547 4.59718C13.1301 4.52447 13.28 4.40137 13.3854 4.24345C13.4909 4.08554 13.5471 3.8999 13.5471 3.71002C13.5471 3.18002 13.1171 2.75035 12.5871 2.75035Z" fill="url(#paint4_radial_320_1272)"/>
<path fill-rule="evenodd" clip-rule="evenodd" d="M8.31667 3.87201C6.04782 3.87201 4.2083 5.71151 4.2083 7.98035C4.2083 10.2492 6.04782 12.0878 8.31667 12.0878C10.5855 12.0878 12.4246 10.2492 12.4246 7.98035C12.4246 5.71151 10.5855 3.87201 8.31667 3.87201ZM8.3333 10.625C9.78304 10.625 10.9583 9.44976 10.9583 8.00002C10.9583 6.55027 9.78304 5.37502 8.3333 5.37502C6.88355 5.37502 5.7083 6.55027 5.7083 8.00002C5.7083 9.44976 6.88355 10.625 8.3333 10.625Z" fill="url(#paint5_radial_320_1272)"/>
<defs>
<radialGradient id="paint0_radial_320_1272" cx="0" cy="0" r="1" gradientUnits="userSpaceOnUse" gradientTransform="translate(4.58331 17.2323) rotate(-90) scale(15.8572 14.7484)">
<stop stop-color="#FFDD55"/>
<stop offset="0.1" stop-color="#FFDD55"/>
<stop offset="0.5" stop-color="#FF543E"/>
<stop offset="1" stop-color="#C837AB"/>
</radialGradient>
<radialGradient id="paint1_radial_320_1272" cx="0" cy="0" r="1" gradientUnits="userSpaceOnUse" gradientTransform="translate(4.58331 17.2323) rotate(-90) scale(15.8572 14.7484)">
<stop stop-color="#FFDD55"/>
<stop offset="0.1" stop-color="#FFDD55"/>
<stop offset="0.5" stop-color="#FF543E"/>
<stop offset="1" stop-color="#C837AB"/>
</radialGradient>
<radialGradient id="paint2_radial_320_1272" cx="0" cy="0" r="1" gradientUnits="userSpaceOnUse" gradientTransform="translate(4.58331 17.2323) rotate(-90) scale(15.8572 14.7484)">
<stop stop-color="#FFDD55"/>
<stop offset="0.1" stop-color="#FFDD55"/>
<stop offset="0.5" stop-color="#FF543E"/>
<stop offset="1" stop-color="#C837AB"/>
</radialGradient>
<radialGradient id="paint3_radial_320_1272" cx="0" cy="0" r="1" gradientUnits="userSpaceOnUse" gradientTransform="translate(-2.34679 1.15261) rotate(78.6806) scale(7.08823 29.218)">
<stop stop-color="#3771C8"/>
<stop offset="0.128" stop-color="#3771C8"/>
<stop offset="1" stop-color="#6600FF" stop-opacity="0"/>
</radialGradient>
<radialGradient id="paint4_radial_320_1272" cx="0" cy="0" r="1" gradientUnits="userSpaceOnUse" gradientTransform="translate(-2.34679 1.15261) rotate(78.6806) scale(7.08823 29.218)">
<stop stop-color="#3771C8"/>
<stop offset="0.128" stop-color="#3771C8"/>
<stop offset="1" stop-color="#6600FF" stop-opacity="0"/>
</radialGradient>
<radialGradient id="paint5_radial_320_1272" cx="0" cy="0" r="1" gradientUnits="userSpaceOnUse" gradientTransform="translate(-2.34679 1.15261) rotate(78.6806) scale(7.08823 29.218)">
<stop stop-color="#3771C8"/>
<stop offset="0.128" stop-color="#3771C8"/>
<stop offset="1" stop-color="#6600FF" stop-opacity="0"/>
</radialGradient>
</defs>
</svg>
