<svg width="21" height="20" viewBox="0 0 21 20" fill="none" xmlns="http://www.w3.org/2000/svg">
<mask id="mask0_320_832" style="mask-type:alpha" maskUnits="userSpaceOnUse" x="0" y="0" width="21" height="20">
<rect x="0.333252" width="20" height="20" fill="#D9D9D9"/>
</mask>
<g mask="url(#mask0_320_832)">
<path d="M10.3289 16C9.91513 16 9.56242 15.8527 9.27075 15.5581C8.97909 15.2635 8.83325 14.9094 8.83325 14.4956C8.83325 14.0819 8.98054 13.7292 9.27513 13.4375C9.56971 13.1458 9.92388 13 10.3376 13C10.7514 13 11.1041 13.1473 11.3958 13.4419C11.6874 13.7365 11.8333 14.0906 11.8333 14.5044C11.8333 14.9181 11.686 15.2708 11.3914 15.5625C11.0968 15.8542 10.7426 16 10.3289 16ZM10.3289 11.5C9.91513 11.5 9.56242 11.3527 9.27075 11.0581C8.97909 10.7635 8.83325 10.4094 8.83325 9.99563C8.83325 9.58188 8.98054 9.22917 9.27513 8.9375C9.56971 8.64583 9.92388 8.5 10.3376 8.5C10.7514 8.5 11.1041 8.64729 11.3958 8.94188C11.6874 9.23646 11.8333 9.59062 11.8333 10.0044C11.8333 10.4181 11.686 10.7708 11.3914 11.0625C11.0968 11.3542 10.7426 11.5 10.3289 11.5ZM10.3289 7C9.91513 7 9.56242 6.85271 9.27075 6.55812C8.97909 6.26354 8.83325 5.90937 8.83325 5.49562C8.83325 5.08187 8.98054 4.72917 9.27513 4.4375C9.56971 4.14583 9.92388 4 10.3376 4C10.7514 4 11.1041 4.14729 11.3958 4.44188C11.6874 4.73646 11.8333 5.09063 11.8333 5.50438C11.8333 5.91813 11.686 6.27083 11.3914 6.5625C11.0968 6.85417 10.7426 7 10.3289 7Z" fill="white"/>
<path d="M10.3289 16C9.91513 16 9.56242 15.8527 9.27075 15.5581C8.97909 15.2635 8.83325 14.9094 8.83325 14.4956C8.83325 14.0819 8.98054 13.7292 9.27513 13.4375C9.56971 13.1458 9.92388 13 10.3376 13C10.7514 13 11.1041 13.1473 11.3958 13.4419C11.6874 13.7365 11.8333 14.0906 11.8333 14.5044C11.8333 14.9181 11.686 15.2708 11.3914 15.5625C11.0968 15.8542 10.7426 16 10.3289 16ZM10.3289 11.5C9.91513 11.5 9.56242 11.3527 9.27075 11.0581C8.97909 10.7635 8.83325 10.4094 8.83325 9.99563C8.83325 9.58188 8.98054 9.22917 9.27513 8.9375C9.56971 8.64583 9.92388 8.5 10.3376 8.5C10.7514 8.5 11.1041 8.64729 11.3958 8.94188C11.6874 9.23646 11.8333 9.59062 11.8333 10.0044C11.8333 10.4181 11.686 10.7708 11.3914 11.0625C11.0968 11.3542 10.7426 11.5 10.3289 11.5ZM10.3289 7C9.91513 7 9.56242 6.85271 9.27075 6.55812C8.97909 6.26354 8.83325 5.90937 8.83325 5.49562C8.83325 5.08187 8.98054 4.72917 9.27513 4.4375C9.56971 4.14583 9.92388 4 10.3376 4C10.7514 4 11.1041 4.14729 11.3958 4.44188C11.6874 4.73646 11.8333 5.09063 11.8333 5.50438C11.8333 5.91813 11.686 6.27083 11.3914 6.5625C11.0968 6.85417 10.7426 7 10.3289 7Z" fill="black" fill-opacity="0.6"/>
</g>
</svg>
