<svg width="21" height="20" viewBox="0 0 21 20" fill="none" xmlns="http://www.w3.org/2000/svg">
<path fill-rule="evenodd" clip-rule="evenodd" d="M9.18798 8.30377V7.6798C8.97137 7.64914 8.75297 7.63321 8.5342 7.63218C5.85906 7.63218 3.68267 9.80857 3.68267 12.4833C3.68267 14.124 4.5028 15.5763 5.75389 16.4546C4.91618 15.5589 4.45046 14.3782 4.45113 13.1519C4.45113 10.5153 6.56559 8.36533 9.18798 8.30377Z" fill="#00F2EA"/>
<path fill-rule="evenodd" clip-rule="evenodd" d="M9.30286 15.3651C10.4964 15.3651 11.4701 14.4158 11.5144 13.2327L11.5185 2.67137H13.4482C13.407 2.45086 13.3862 2.22703 13.3859 2.0027H10.7504L10.746 12.5644C10.702 13.7471 9.72797 14.6961 8.53478 14.6961C8.17654 14.6962 7.8237 14.6089 7.50686 14.4418C7.71143 14.7272 7.98104 14.9598 8.29334 15.1203C8.60565 15.2809 8.95169 15.3648 9.30286 15.3651ZM17.0539 6.25775V5.67077C16.3446 5.67144 15.6507 5.46517 15.057 5.07723C15.5775 5.67641 16.2783 6.09061 17.0542 6.25775" fill="#00F2EA"/>
<path fill-rule="evenodd" clip-rule="evenodd" d="M15.0587 5.06699C14.4769 4.40142 14.1565 3.54737 14.1569 2.66344H13.4507C13.5421 3.15201 13.7318 3.61694 14.0082 4.03008C14.2846 4.44322 14.642 4.79598 15.0587 5.06699ZM8.53492 10.2606C7.94751 10.2613 7.38437 10.4949 6.96899 10.9102C6.55365 11.3255 6.32001 11.8885 6.31931 12.4758C6.31971 12.8798 6.43052 13.2761 6.63979 13.6217C6.84906 13.9673 7.1488 14.2491 7.50664 14.4368C7.23417 14.0611 7.08746 13.6089 7.08743 13.1449C7.088 12.5575 7.3216 11.9944 7.73698 11.579C8.15235 11.1636 8.71556 10.93 9.30304 10.9293C9.53135 10.9293 9.75012 10.967 9.95679 11.0319V8.34144C9.74022 8.31078 9.52178 8.29485 9.30304 8.29381C9.26454 8.29381 9.22681 8.29601 9.1887 8.29674V10.3632C8.97727 10.2959 8.7568 10.2613 8.53492 10.2606Z" fill="#FF004F"/>
<path fill-rule="evenodd" clip-rule="evenodd" d="M17.0501 6.25776V8.30591C15.6832 8.30591 14.4171 7.86881 13.383 7.12686V12.4825C13.383 15.1571 11.2069 17.3331 8.53179 17.3331C7.498 17.3331 6.53935 17.0071 5.75146 16.4538C6.20444 16.9422 6.75342 17.3318 7.36403 17.5982C7.97465 17.8646 8.63369 18.002 9.29987 18.0018C11.975 18.0018 14.1514 15.8258 14.1514 13.1515V7.79589C15.2198 8.56397 16.5027 8.97647 17.8186 8.97494V6.33911C17.5547 6.33911 17.2982 6.31052 17.0501 6.25739" fill="#FF004F"/>
<path fill-rule="evenodd" clip-rule="evenodd" d="M13.3857 12.4796V7.12398C14.454 7.89213 15.737 8.30463 17.0529 8.30303V6.25489C16.277 6.08758 15.5763 5.67324 15.056 5.074C14.6393 4.80299 14.2819 4.45024 14.0055 4.03709C13.7291 3.62395 13.5394 3.15902 13.448 2.67045H11.5182L11.5142 13.2318C11.4699 14.4145 10.4962 15.3638 9.30261 15.3638C8.95144 15.3635 8.6054 15.2795 8.29309 15.119C7.98082 14.9584 7.71121 14.7259 7.50661 14.4405C7.1487 14.2529 6.84886 13.9711 6.63952 13.6255C6.43018 13.2799 6.31932 12.8836 6.31892 12.4796C6.31958 11.8922 6.55322 11.3292 6.9686 10.9139C7.38394 10.4986 7.94712 10.265 8.53453 10.2643C8.76247 10.2643 8.98124 10.3017 9.18827 10.3669V8.30047C6.56589 8.36203 4.45143 10.512 4.45143 13.1486C4.45143 14.4237 4.94688 15.5844 5.75419 16.4513C6.56805 17.0241 7.53924 17.3311 8.53453 17.3303C11.2097 17.3303 13.3857 15.1542 13.3857 12.4796Z" fill="black"/>
</svg>
