<svg width="21" height="20" viewBox="0 0 21 20" fill="none" xmlns="http://www.w3.org/2000/svg">
<mask id="mask0_320_458" style="mask-type:alpha" maskUnits="userSpaceOnUse" x="0" y="0" width="21" height="20">
<rect x="0.333252" width="20" height="20" fill="#D9D9D9"/>
</mask>
<g mask="url(#mask0_320_458)">
<path d="M10.7499 2.4974H6.83325C5.43312 2.4974 4.73305 2.4974 4.19828 2.76988C3.72787 3.00956 3.34542 3.39201 3.10574 3.86242C2.83325 4.3972 2.83325 5.09726 2.83325 6.4974V13.4974C2.83325 14.8975 2.83325 15.5976 3.10574 16.1324C3.34542 16.6028 3.72787 16.9852 4.19828 17.2249C4.73305 17.4974 5.43312 17.4974 6.83325 17.4974H14.4999C15.2749 17.4974 15.6624 17.4974 15.9803 17.4122C16.843 17.181 17.5169 16.5072 17.7481 15.6444C17.8333 15.3265 17.8333 14.939 17.8333 14.1641M16.1666 6.66406V1.66406M13.6666 4.16406H18.6666M9.08325 7.08073C9.08325 8.0012 8.33706 8.7474 7.41659 8.7474C6.49611 8.7474 5.74992 8.0012 5.74992 7.08073C5.74992 6.16025 6.49611 5.41406 7.41659 5.41406C8.33706 5.41406 9.08325 6.16025 9.08325 7.08073ZM12.8249 9.92918L5.77588 16.3374C5.37939 16.6979 5.18114 16.8781 5.16361 17.0342C5.14841 17.1695 5.2003 17.3038 5.30257 17.3937C5.42057 17.4974 5.68849 17.4974 6.22432 17.4974H14.0466C15.2459 17.4974 15.8455 17.4974 16.3165 17.2959C16.9078 17.043 17.3788 16.5719 17.6318 15.9807C17.8333 15.5097 17.8333 14.91 17.8333 13.7107C17.8333 13.3072 17.8333 13.1054 17.7891 12.9175C17.7337 12.6814 17.6274 12.4602 17.4776 12.2694C17.3585 12.1176 17.2009 11.9915 16.8858 11.7394L14.5548 9.87461C14.2394 9.62232 14.0817 9.49617 13.9081 9.45165C13.755 9.41242 13.594 9.4175 13.4437 9.4663C13.2732 9.52168 13.1238 9.65752 12.8249 9.92918Z" stroke="#8A226F" stroke-linecap="round" stroke-linejoin="round"/>
</g>
</svg>
