<svg width="20" height="20" viewBox="0 0 20 20" fill="none" xmlns="http://www.w3.org/2000/svg">
<path fill-rule="evenodd" clip-rule="evenodd" d="M19.5999 10.2273C19.5999 9.51819 19.5363 8.83637 19.4181 8.18182H9.99994V12.05H15.3818C15.1499 13.3 14.4454 14.3591 13.3863 15.0682V17.5773H16.6181C18.509 15.8364 19.5999 13.2727 19.5999 10.2273Z" fill="#4285F4"/>
<path fill-rule="evenodd" clip-rule="evenodd" d="M9.99987 19.9998C12.6999 19.9998 14.9635 19.1044 16.6181 17.5771L13.3862 15.068C12.4908 15.668 11.3453 16.0226 9.99987 16.0226C7.39533 16.0226 5.19078 14.2635 4.40442 11.8998H1.06351V14.4908C2.70896 17.7589 6.09078 19.9998 9.99987 19.9998Z" fill="#34A853"/>
<path fill-rule="evenodd" clip-rule="evenodd" d="M4.40448 11.9001C4.20448 11.3001 4.09085 10.6592 4.09085 10.0001C4.09085 9.34097 4.20448 8.70006 4.40448 8.10006V5.50916H1.06358C0.386303 6.85916 -6.10352e-05 8.38643 -6.10352e-05 10.0001C-6.10352e-05 11.6137 0.386303 13.141 1.06358 14.491L4.40448 11.9001Z" fill="#FBBC05"/>
<path fill-rule="evenodd" clip-rule="evenodd" d="M9.99987 3.97727C11.4681 3.97727 12.7862 4.48182 13.8226 5.47273L16.6908 2.60455C14.959 0.990909 12.6953 0 9.99987 0C6.09078 0 2.70896 2.24091 1.06351 5.50909L4.40442 8.1C5.19078 5.73636 7.39533 3.97727 9.99987 3.97727Z" fill="#EA4335"/>
</svg>
