<svg width="14" height="13" viewBox="0 0 14 13" fill="none" xmlns="http://www.w3.org/2000/svg">
<path d="M10.5059 8.73818C11.3552 9.16481 12.0833 9.84947 12.6148 10.7056C12.72 10.8752 12.7727 10.9599 12.7908 11.0773C12.8278 11.3159 12.6647 11.6091 12.4425 11.7035C12.3332 11.75 12.2102 11.75 11.9642 11.75M9.33922 6.22714C10.2036 5.7976 10.7976 4.90567 10.7976 3.875C10.7976 2.84433 10.2036 1.9524 9.33922 1.52286M8.17255 3.875C8.17255 5.32475 6.9973 6.5 5.54755 6.5C4.09781 6.5 2.92255 5.32475 2.92255 3.875C2.92255 2.42525 4.09781 1.25 5.54755 1.25C6.9973 1.25 8.17255 2.42525 8.17255 3.875ZM1.49877 10.5474C2.42878 9.15099 3.89635 8.25 5.54755 8.25C7.19875 8.25 8.66632 9.15099 9.59634 10.5474C9.80008 10.8533 9.90195 11.0062 9.89022 11.2016C9.88109 11.3538 9.78136 11.54 9.6598 11.6319C9.50367 11.75 9.28895 11.75 8.85951 11.75H2.23559C1.80615 11.75 1.59143 11.75 1.43531 11.6319C1.31375 11.54 1.21402 11.3538 1.20489 11.2016C1.19316 11.0062 1.29503 10.8533 1.49877 10.5474Z" stroke="white" stroke-linecap="round" stroke-linejoin="round"/>
<path d="M10.5059 8.73818C11.3552 9.16481 12.0833 9.84947 12.6148 10.7056C12.72 10.8752 12.7727 10.9599 12.7908 11.0773C12.8278 11.3159 12.6647 11.6091 12.4425 11.7035C12.3332 11.75 12.2102 11.75 11.9642 11.75M9.33922 6.22714C10.2036 5.7976 10.7976 4.90567 10.7976 3.875C10.7976 2.84433 10.2036 1.9524 9.33922 1.52286M8.17255 3.875C8.17255 5.32475 6.9973 6.5 5.54755 6.5C4.09781 6.5 2.92255 5.32475 2.92255 3.875C2.92255 2.42525 4.09781 1.25 5.54755 1.25C6.9973 1.25 8.17255 2.42525 8.17255 3.875ZM1.49877 10.5474C2.42878 9.15099 3.89635 8.25 5.54755 8.25C7.19875 8.25 8.66632 9.15099 9.59634 10.5474C9.80008 10.8533 9.90195 11.0062 9.89022 11.2016C9.88109 11.3538 9.78136 11.54 9.6598 11.6319C9.50367 11.75 9.28895 11.75 8.85951 11.75H2.23559C1.80615 11.75 1.59143 11.75 1.43531 11.6319C1.31375 11.54 1.21402 11.3538 1.20489 11.2016C1.19316 11.0062 1.29503 10.8533 1.49877 10.5474Z" stroke="black" stroke-opacity="0.9" stroke-linecap="round" stroke-linejoin="round"/>
</svg>
