<svg width="20" height="20" viewBox="0 0 20 20" fill="none" xmlns="http://www.w3.org/2000/svg">
<mask id="mask0_320_1854" style="mask-type:alpha" maskUnits="userSpaceOnUse" x="0" y="0" width="20" height="20">
<rect width="20" height="20" fill="#D9D9D9"/>
</mask>
<g mask="url(#mask0_320_1854)">
<path d="M17.2297 10.5062C17.4331 10.3318 17.5348 10.2446 17.5721 10.1409C17.6048 10.0498 17.6048 9.9502 17.5721 9.85914C17.5348 9.75539 17.4331 9.6682 17.2297 9.49383L10.1708 3.44331C9.82057 3.14315 9.64547 2.99306 9.49723 2.98939C9.3684 2.98619 9.24533 3.04279 9.16391 3.14269C9.07023 3.25764 9.07023 3.48825 9.07023 3.94948V7.52886C7.29133 7.84007 5.66323 8.74146 4.45332 10.0949C3.13425 11.5704 2.40459 13.48 2.40356 15.4591V15.9691C3.27802 14.9157 4.36982 14.0638 5.6042 13.4716C6.69248 12.9495 7.86891 12.6403 9.07023 12.5588V16.0505C9.07023 16.5117 9.07023 16.7424 9.16391 16.8573C9.24533 16.9572 9.3684 17.0138 9.49723 17.0106C9.64547 17.0069 9.82057 16.8569 10.1708 16.5567L17.2297 10.5062Z" stroke="white" stroke-linecap="round" stroke-linejoin="round"/>
<path d="M17.2297 10.5062C17.4331 10.3318 17.5348 10.2446 17.5721 10.1409C17.6048 10.0498 17.6048 9.9502 17.5721 9.85914C17.5348 9.75539 17.4331 9.6682 17.2297 9.49383L10.1708 3.44331C9.82057 3.14315 9.64547 2.99306 9.49723 2.98939C9.3684 2.98619 9.24533 3.04279 9.16391 3.14269C9.07023 3.25764 9.07023 3.48825 9.07023 3.94948V7.52886C7.29133 7.84007 5.66323 8.74146 4.45332 10.0949C3.13425 11.5704 2.40459 13.48 2.40356 15.4591V15.9691C3.27802 14.9157 4.36982 14.0638 5.6042 13.4716C6.69248 12.9495 7.86891 12.6403 9.07023 12.5588V16.0505C9.07023 16.5117 9.07023 16.7424 9.16391 16.8573C9.24533 16.9572 9.3684 17.0138 9.49723 17.0106C9.64547 17.0069 9.82057 16.8569 10.1708 16.5567L17.2297 10.5062Z" stroke="black" stroke-opacity="0.6" stroke-linecap="round" stroke-linejoin="round"/>
</g>
</svg>
