<svg width="14" height="15" viewBox="0 0 14 15" fill="none" xmlns="http://www.w3.org/2000/svg">
<mask id="mask0_320_1635" style="mask-type:alpha" maskUnits="userSpaceOnUse" x="0" y="0" width="14" height="15">
<rect y="0.5" width="14" height="14" fill="#D9D9D9"/>
</mask>
<g mask="url(#mask0_320_1635)">
<path d="M6.47994 2.3805C6.61439 2.10812 6.68162 1.97193 6.77288 1.92842C6.85228 1.89056 6.94453 1.89056 7.02393 1.92842C7.1152 1.97193 7.18242 2.10812 7.31687 2.3805L8.59243 4.96465C8.63213 5.04506 8.65197 5.08527 8.68098 5.11649C8.70666 5.14413 8.73745 5.16652 8.77167 5.18243C8.8103 5.2004 8.85467 5.20688 8.9434 5.21985L11.7966 5.6369C12.0971 5.68081 12.2473 5.70277 12.3169 5.77616C12.3773 5.84001 12.4058 5.92774 12.3943 6.01494C12.381 6.11516 12.2723 6.22109 12.0548 6.43296L9.99091 8.44315C9.92657 8.50581 9.8944 8.53714 9.87365 8.57442C9.85527 8.60743 9.84348 8.64369 9.83893 8.6812C9.83379 8.72356 9.84138 8.76782 9.85657 8.85633L10.3435 11.6956C10.3949 11.9951 10.4206 12.1448 10.3723 12.2337C10.3303 12.311 10.2557 12.3652 10.1692 12.3813C10.0698 12.3997 9.9353 12.329 9.66638 12.1876L7.11562 10.8461C7.03614 10.8043 6.9964 10.7834 6.95454 10.7752C6.91747 10.768 6.87934 10.768 6.84228 10.7752C6.80041 10.7834 6.76067 10.8043 6.6812 10.8461L4.13044 12.1876C3.86151 12.329 3.72705 12.3997 3.62763 12.3813C3.54113 12.3652 3.46649 12.311 3.42449 12.2337C3.37623 12.1448 3.40191 11.9951 3.45327 11.6956L3.94025 8.85633C3.95543 8.76782 3.96302 8.72356 3.95788 8.6812C3.95334 8.64369 3.94155 8.60743 3.92317 8.57442C3.90241 8.53714 3.87024 8.50581 3.80591 8.44315L1.74206 6.43296C1.52453 6.22109 1.41577 6.11516 1.40254 6.01494C1.39102 5.92774 1.41947 5.84001 1.47996 5.77616C1.54948 5.70277 1.69971 5.68081 2.00017 5.6369L4.85341 5.21985C4.94214 5.20688 4.98651 5.2004 5.02515 5.18243C5.05936 5.16652 5.09016 5.14413 5.11584 5.11649C5.14484 5.08527 5.16469 5.04506 5.20438 4.96465L6.47994 2.3805Z" fill="white"/>
<path d="M6.47994 2.3805C6.61439 2.10812 6.68162 1.97193 6.77288 1.92842C6.85228 1.89056 6.94453 1.89056 7.02393 1.92842C7.1152 1.97193 7.18242 2.10812 7.31687 2.3805L8.59243 4.96465C8.63213 5.04506 8.65197 5.08527 8.68098 5.11649C8.70666 5.14413 8.73745 5.16652 8.77167 5.18243C8.8103 5.2004 8.85467 5.20688 8.9434 5.21985L11.7966 5.6369C12.0971 5.68081 12.2473 5.70277 12.3169 5.77616C12.3773 5.84001 12.4058 5.92774 12.3943 6.01494C12.381 6.11516 12.2723 6.22109 12.0548 6.43296L9.99091 8.44315C9.92657 8.50581 9.8944 8.53714 9.87365 8.57442C9.85527 8.60743 9.84348 8.64369 9.83893 8.6812C9.83379 8.72356 9.84138 8.76782 9.85657 8.85633L10.3435 11.6956C10.3949 11.9951 10.4206 12.1448 10.3723 12.2337C10.3303 12.311 10.2557 12.3652 10.1692 12.3813C10.0698 12.3997 9.9353 12.329 9.66638 12.1876L7.11562 10.8461C7.03614 10.8043 6.9964 10.7834 6.95454 10.7752C6.91747 10.768 6.87934 10.768 6.84228 10.7752C6.80041 10.7834 6.76067 10.8043 6.6812 10.8461L4.13044 12.1876C3.86151 12.329 3.72705 12.3997 3.62763 12.3813C3.54113 12.3652 3.46649 12.311 3.42449 12.2337C3.37623 12.1448 3.40191 11.9951 3.45327 11.6956L3.94025 8.85633C3.95543 8.76782 3.96302 8.72356 3.95788 8.6812C3.95334 8.64369 3.94155 8.60743 3.92317 8.57442C3.90241 8.53714 3.87024 8.50581 3.80591 8.44315L1.74206 6.43296C1.52453 6.22109 1.41577 6.11516 1.40254 6.01494C1.39102 5.92774 1.41947 5.84001 1.47996 5.77616C1.54948 5.70277 1.69971 5.68081 2.00017 5.6369L4.85341 5.21985C4.94214 5.20688 4.98651 5.2004 5.02515 5.18243C5.05936 5.16652 5.09016 5.14413 5.11584 5.11649C5.14484 5.08527 5.16469 5.04506 5.20438 4.96465L6.47994 2.3805Z" fill="black" fill-opacity="0.9"/>
</g>
</svg>
